General
Unique ID                                : 139325831261572704293806512047230109041 (0x68D12DD5EA2F7B6D06BD2805E3AD4571)
Complete name                            : 12012 - Over.... [NTSC DVD 480p PCM 2.0 MPEG-2 REMUX-SEKAI].mkv
Format                                   : Matroska
Format version                           : Version 4
File size                                : 406 MiB
Duration                                 : 6 min 16 s
Overall bit rate mode                    : Constant
Overall bit rate                         : 9 038 kb/s
Frame rate                               : 29.970 FPS
Title                                    : 12012 - Over.... [NTSC DVD 480p PCM 2.0 MPEG-2 REMUX-SEKAI]
Encoded date                             : 2026-01-16 14:16:59 UTC
Writing application                      : mkvmerge v97.0 ('You Don't Have A Clue') 64-bit
Writing library                          : libebml v1.4.5 + libmatroska v1.7.1
Website                                  : https://sekai-archivist.blogspot.com/

Video
ID                                       : 1
ID in the original source medium         : 224 (0xE0)
Format                                   : MPEG Video
Format version                           : Version 2
Format profile                           : Main@Main
Format settings                          : CustomMatrix / BVOP
Format settings, BVOP                    : Yes
Format settings, Matrix                  : Custom
Format settings, GOP                     : M=3, N=16
Codec ID                                 : V_MPEG2
Codec ID/Info                            : MPEG 1 or 2 Video
Duration                                 : 6 min 16 s
Bit rate mode                            : Constant
Bit rate                                 : 7 500 kb/s
Width                                    : 720 pixels
Height                                   : 480 pixels
Display aspect ratio                     : 16:9
Frame rate mode                          : Constant
Frame rate                               : 29.970 (30000/1001) FPS
Standard                                 : NTSC
Color space                              : YUV
Chroma subsampling                       : 4:2:0
Bit depth                                : 8 bits
Scan type                                : Progressive
Compression mode                         : Lossy
Bits/(Pixel*Frame)                       : 0.724
Time code of first frame                 : 00:00:00:00
Time code source                         : Group of pictures header
GOP, Open/Closed                         : Closed
Stream size                              : 337 MiB (83%)
Writing library                          : TMPGEnc XPress 4.7.8.309
Language                                 : Japanese
Default                                  : Yes
Forced                                   : No
Color primaries                          : BT.601 NTSC
Transfer characteristics                 : BT.601
Matrix coefficients                      : BT.601
Original source medium                   : DVD-Video

Audio
ID                                       : 2
ID in the original source medium         : 189 (0xBD)160 (0xA0)
Format                                   : PCM
Format settings                          : Little / Signed
Codec ID                                 : A_PCM/INT/LIT
Duration                                 : 6 min 16 s
Bit rate mode                            : Constant
Bit rate                                 : 1 536 kb/s
Channel(s)                               : 2 channels
Sampling rate                            : 48.0 kHz
Frame rate                               : 25.001 FPS (1920 SPF)
Bit depth                                : 16 bits
Stream size                              : 68.9 MiB (17%)
Language                                 : Japanese
Default                                  : Yes
Forced                                   : No
Original source medium                   : DVD-Video


